# xmcd
#
# Track frame offsets: 
#        150
#        12814
#        28558
#        42469
#        54161
#        64330
#        75188
#        89230
#        100385
#        113290
#
# Disc length: 1704 seconds
#
# Revision: 3
# Processed by: cddbd v1.5.1PL0 Copyright (c) Steve Scherf et al.
# Submitted via: ExactAudioCopy v0.90b4
#
DISCID=7106a60a
DTITLE=Muddy Waters - Muddy's Blues [Delta]
DYEAR=2001
DGENRE=Blues
TTITLE0=The Stuff You Gotta Watch
TTITLE1=Iodine in My Coffee
TTITLE2=Close To You
TTITLE3=You Gonna Miss Me
TTITLE4=Mean Red Spider
TTITLE5=Diamonds at Your Feet
TTITLE6=You Gonna Need My Help
TTITLE7=She's All Right
TTITLE8=So Glad I'm Living
TTITLE9=One More Mile
EXTD=YEAR: 2000 ID3G:   0
EXTT0=
EXTT1=
EXTT2=
EXTT3=
EXTT4=
EXTT5=
EXTT6=
EXTT7=
EXTT8=
EXTT9=
PLAYORDER=
